<mxfile host="app.diagrams.net" modified="2022-03-15T04:25:17.701Z" agent="5.0 (Windows NT 6.3; Win64; x64) AppleWebKit/537.36 (KHTML, like Gecko) Chrome/99.0.4844.51 Safari/537.36" etag="wfFNR6aTXenxsohdgIm0" version="17.1.2" type="github">
  <diagram id="WWS_F8Nu0QQZ9BbjHKAs" name="Page-1">
    <mxGraphModel dx="1304" dy="567" grid="1" gridSize="10" guides="1" tooltips="1" connect="1" arrows="1" fold="1" page="1" pageScale="1" pageWidth="850" pageHeight="1100" math="0" shadow="0">
      <root>
        <mxCell id="0" />
        <mxCell id="1" parent="0" />
        <mxCell id="qQAsEDVxZ6gm0i9vYEok-4" value="" style="shape=note;size=20;whiteSpace=wrap;html=1;fillColor=#FFFB87;strokeColor=#C7C75D;shadow=1;" vertex="1" parent="1">
          <mxGeometry x="20" y="10" width="100" height="100" as="geometry" />
        </mxCell>
        <mxCell id="qQAsEDVxZ6gm0i9vYEok-6" value="" style="shape=note;size=20;whiteSpace=wrap;html=1;shadow=1;strokeColor=#D99DA3;fillColor=#FFB8BC;" vertex="1" parent="1">
          <mxGeometry x="140" y="10" width="100" height="100" as="geometry" />
        </mxCell>
        <mxCell id="qQAsEDVxZ6gm0i9vYEok-8" value="" style="shape=note;size=20;whiteSpace=wrap;html=1;shadow=1;strokeColor=#7CC787;fillColor=#B8FFB5;" vertex="1" parent="1">
          <mxGeometry x="260" y="10" width="100" height="100" as="geometry" />
        </mxCell>
      </root>
    </mxGraphModel>
  </diagram>
</mxfile>
